<svg width="332" height="196" viewBox="0 0 332 196" fill="none" xmlns="http://www.w3.org/2000/svg">
<g clip-path="url(#clip0_1_16)">
<path d="M90.6297 181.79V14.2095C90.6297 6.62118 84.4781 0.469604 76.8898 0.469604C69.3014 0.469604 63.1498 6.62118 63.1498 14.2095V181.79C63.1498 189.379 69.3014 195.53 76.8898 195.53C84.4781 195.53 90.6297 189.379 90.6297 181.79Z" fill="#D4D4D4"/>
<path d="M55.2423 156.631V39.3687C55.2423 31.7804 49.0907 25.6288 41.5023 25.6288C33.914 25.6288 27.7624 31.7803 27.7624 39.3687V156.631C27.7624 164.22 33.914 170.371 41.5023 170.371C49.0907 170.371 55.2423 164.22 55.2423 156.631Z" fill="#D4D4D4"/>
<path d="M9.88099 84C4.42387 84 0 88.4239 0 93.881V100.831C0 106.288 4.42387 110.712 9.88099 110.712V110.712H10.119V110.712C15.5761 110.712 20 106.288 20 100.831V93.881C20 88.4239 15.5761 84 10.119 84V84H9.88099V84Z" fill="#D4D4D4"/>
<path d="M227 85H105C102.791 85 101 86.7909 101 89V108C101 110.209 102.791 112 105 112H227C229.209 112 231 110.209 231 108V89C231 86.7909 229.209 85 227 85Z" fill="#D4D4D4"/>
<path d="M241 181.321V13.7399C241 6.15158 247.152 0 254.74 0C262.328 0 268.48 6.15157 268.48 13.7399V181.321C268.48 188.909 262.328 195.061 254.74 195.061C247.152 195.061 241 188.909 241 181.321Z" fill="#D4D4D4"/>
<path d="M276.388 156.162V38.899C276.388 31.3107 282.539 25.1591 290.128 25.1591C297.716 25.1591 303.868 31.3107 303.868 38.899V156.162C303.868 163.75 297.716 169.902 290.128 169.902C282.539 169.902 276.388 163.75 276.388 156.162Z" fill="#D4D4D4"/>
<path d="M321.043 84.1719C315.585 84.1719 311.16 88.5965 311.16 94.0545V101.001C311.16 106.459 315.585 110.884 321.043 110.884V110.884H321.278V110.884C326.736 110.884 331.16 106.459 331.16 101.001V94.0545C331.16 88.5965 326.736 84.1719 321.278 84.1719V84.1719H321.043V84.1719Z" fill="#D4D4D4"/>
</g>
<defs>
<clipPath id="clip0_1_16">
<rect width="332" height="196" fill="white"/>
</clipPath>
</defs>
</svg>
